HIERARCHY
ROOT Hips
{
	OFFSET 0.000000 0.000000 0.000000
	CHANNELS 6 Xposition Yposition Zposition Xrotation Yrotation Zrotation
	JOINT LeftUpLeg_virtual
	{
		OFFSET 0.000000 0.000000 0.000000
		CHANNELS 3 Xrotation Yrotation Zrotation
		JOINT LeftUpLeg
		{
			OFFSET 15.427100 -6.655098 0.678600
			CHANNELS 3 Xrotation Yrotation Zrotation
			JOINT LeftLeg
			{
				OFFSET 4.081073 -39.591068 13.024000
				CHANNELS 3 Xrotation Yrotation Zrotation
				JOINT LeftFoot
				{
					OFFSET -4.081074 -37.707932 -15.979700
					CHANNELS 3 Xrotation Yrotation Zrotation
					JOINT LeftToeBase
					{
						OFFSET 5.346399 -15.068900 20.645000
						CHANNELS 3 Xrotation Yrotation Zrotation
						JOINT LeftToe_End
						{
							OFFSET 2.754700 0.931300 11.300900
							CHANNELS 3 Xrotation Yrotation Zrotation
							End Site
							{
								OFFSET 0 0 0
							}
						}
					}
				}
			}
		}
	}
	JOINT RightUpLeg_virtual
	{
		OFFSET 0.000000 0.000000 0.000000
		CHANNELS 3 Xrotation Yrotation Zrotation
		JOINT RightUpLeg
		{
			OFFSET -15.569500 -6.655098 0.678600
			CHANNELS 3 Xrotation Yrotation Zrotation
			JOINT RightLeg
			{
				OFFSET -4.081825 -39.591045 13.023800
				CHANNELS 3 Xrotation Yrotation Zrotation
				JOINT RightFoot
				{
					OFFSET 4.081824 -37.707954 -15.979600
					CHANNELS 3 Xrotation Yrotation Zrotation
					JOINT RightToeBase
					{
						OFFSET -5.346400 -15.068900 20.645000
						CHANNELS 3 Xrotation Yrotation Zrotation
						JOINT RightToe_End
						{
							OFFSET -2.754700 0.931300 11.300900
							CHANNELS 3 Xrotation Yrotation Zrotation
							End Site
							{
								OFFSET 0 0 0
							}
						}
					}
				}
			}
		}
	}
	JOINT Spine_virtual
	{
		OFFSET 0.000000 0.000000 0.000000
		CHANNELS 3 Xrotation Yrotation Zrotation
		JOINT Spine
		{
			OFFSET -0.279200 12.230698 -2.892100
			CHANNELS 3 Xrotation Yrotation Zrotation
			JOINT Spine1
			{
				OFFSET -0.232667 10.192268 -1.242267
				CHANNELS 3 Xrotation Yrotation Zrotation
				JOINT Spine1_split
				{
					OFFSET -0.232667 10.192268 -1.242267
					CHANNELS 3 Xrotation Yrotation Zrotation
					JOINT Spine2
					{
						OFFSET -0.232667 10.192268 -1.242267
						CHANNELS 3 Xrotation Yrotation Zrotation
						JOINT Neck_virtual
						{
							OFFSET 0.000000 0.000000 0.000000
							CHANNELS 3 Xrotation Yrotation Zrotation
							JOINT Neck
							{
								OFFSET -0.418800 17.814194 8.416900
								CHANNELS 3 Xrotation Yrotation Zrotation
								JOINT Head
								{
									OFFSET 0.000000 7.031097 3.806800
									CHANNELS 3 Xrotation Yrotation Zrotation
									JOINT HeadTop_End
									{
										OFFSET 0.000000 24.646606 12.978600
										CHANNELS 3 Xrotation Yrotation Zrotation
										End Site
										{
											OFFSET 0 0 0
										}
									}
								}
							}
						}
						JOINT LeftShoulder_virtual
						{
							OFFSET 0.000000 0.000000 0.000000
							CHANNELS 3 Xrotation Yrotation Zrotation
							JOINT LeftShoulder
							{
								OFFSET 8.476499 7.247704 -3.868750
								CHANNELS 3 Xrotation Yrotation Zrotation
								JOINT LeftShoulder_split
								{
									OFFSET 8.476499 7.247704 -3.868750
									CHANNELS 3 Xrotation Yrotation Zrotation
									JOINT LeftArm
									{
										OFFSET 9.308998 -2.777710 0.208600
										CHANNELS 3 Xrotation Yrotation Zrotation
										JOINT LeftForeArm
										{
											OFFSET 29.972298 0.000000 0.000000
											CHANNELS 3 Xrotation Yrotation Zrotation
											JOINT LeftHand
											{
												OFFSET 26.026505 0.000000 0.000000
												CHANNELS 3 Xrotation Yrotation Zrotation
												End Site
												{
													OFFSET 0 0 0
												}
											}
										}
									}
								}
							}
						}
						JOINT RightShoulder_virtual
						{
							OFFSET 0.000000 0.000000 0.000000
							CHANNELS 3 Xrotation Yrotation Zrotation
							JOINT RightShoulder
							{
								OFFSET -7.570500 7.247704 -3.868750
								CHANNELS 3 Xrotation Yrotation Zrotation
								JOINT RightShoulder_split
								{
									OFFSET -7.570500 7.247704 -3.868750
									CHANNELS 3 Xrotation Yrotation Zrotation
									JOINT RightArm
									{
										OFFSET -9.308998 -2.777710 0.208500
										CHANNELS 3 Xrotation Yrotation Zrotation
										JOINT RightForeArm
										{
											OFFSET -29.972300 0.000000 0.000000
											CHANNELS 3 Xrotation Yrotation Zrotation
											JOINT RightHand
											{
												OFFSET -26.026505 0.000000 0.000000
												CHANNELS 3 Xrotation Yrotation Zrotation
												End Site
												{
													OFFSET 0 0 0
												}
											}
										}
									}
								}
							}
						}
					}
				}
			}
		}
	}
}
MOTION
Frames: 6
Frame Time: 0.03333333
0.966598 76.513969 4.916931 0.000000 0.000000 0.000000 -1.989264 -46.179937 3.353602 -31.894224 10.768493 21.603137 51.524662 -9.221455 -4.097517 -25.323217 -9.501652 -13.129294 -1.999298 -0.976049 0.716692 0.000000 0.000000 0.000000 -3.298635 -44.575672 3.817571 -18.642907 -10.207930 -40.162247 51.334185 -5.773944 -10.410906 -21.353350 -9.096968 26.314316 -3.911789 0.447265 1.265211 0.000000 0.000000 0.000000 -1.334711 -46.242877 4.447690 9.403067 12.853833 -3.054819 0.514541 3.931062 -1.705219 0.432028 -1.868683 1.289197 0.000000 0.000000 0.000000 1.921749 4.078175 -1.753859 -8.593665 11.696024 3.969791 6.364883 16.994673 0.885998 0.000000 0.000000 0.000000 1.610516 4.120437 -1.354753 0.689748 0.199139 -4.411978 -0.467454 -3.876713 1.275509 6.042211 1.342109 -39.035190 178.372972 -49.324088 178.935780 0.000000 0.000000 0.000000 1.383753 3.740601 -1.593210 1.439092 13.093511 -4.715652 -7.014551 -1.179100 2.637945 -59.885241 20.326353 64.714567 -165.665460 79.145507 164.402271 0.000000 0.000000 0.000000 
1.571625 76.589523 4.855721 0.000000 0.000000 0.000000 -1.857328 -51.397747 2.871001 -30.245881 10.615176 22.238085 51.395879 -8.137888 -4.976189 -27.545379 -5.874690 -12.072676 -2.340759 -1.014159 1.124293 0.000000 0.000000 0.000000 -2.985044 -49.038829 3.486408 -20.513017 -6.343881 -39.040719 51.926950 -4.258917 -11.242026 -21.236568 -7.132460 26.902462 -3.795705 0.608511 0.948405 0.000000 0.000000 0.000000 -0.863726 -50.110161 4.390360 9.612946 12.280925 -2.199290 0.851886 3.803691 -1.654940 0.470266 -1.684185 1.202643 0.000000 0.000000 0.000000 2.274301 3.988416 -1.667901 -8.803316 12.780343 3.666601 5.456244 20.094432 -0.864988 0.000000 0.000000 0.000000 1.682046 4.035283 -1.241367 0.913002 0.685180 -2.430946 0.267401 -4.475299 0.365287 1.971579 5.707098 -34.036557 178.798206 -53.818769 179.216992 0.000000 0.000000 0.000000 1.439668 3.637166 -1.464735 1.182034 10.568481 -2.775248 -6.181401 -1.335043 2.975882 -60.867224 23.105785 69.916439 -172.085619 74.546249 170.691605 0.000000 0.000000 0.000000 
1.982095 76.504944 4.753147 0.000000 0.000000 0.000000 -1.622984 -56.658584 2.099005 -29.033628 9.555447 23.096602 52.067338 -7.055572 -5.079710 -29.533311 -2.347814 -10.989793 -2.439954 -0.991341 1.194236 0.000000 0.000000 0.000000 -2.658278 -53.297988 2.743633 -22.088331 -3.533134 -37.079963 51.887496 -2.990085 -11.876542 -21.489951 -5.427198 27.077470 -3.690315 0.821982 0.685282 0.000000 0.000000 0.000000 -0.146387 -53.706037 3.928630 9.755005 11.147460 -1.580111 1.194842 3.220368 -1.602403 0.797073 -1.496873 1.082791 0.000000 0.000000 0.000000 2.588522 3.333352 -1.535017 -8.962551 14.211975 3.390683 4.883576 23.345344 -2.794185 0.000000 0.000000 0.000000 1.831560 3.382721 -1.166926 1.054792 1.035646 -0.091462 0.242620 -3.157724 -0.543420 -6.711413 6.084104 -26.518565 178.759670 -66.018443 179.229205 0.000000 0.000000 0.000000 1.575689 3.029834 -1.440226 0.938752 8.946735 -1.183503 -5.513026 -2.055232 2.962767 -61.300313 25.967539 74.274872 -176.008524 70.443989 174.346453 0.000000 0.000000 0.000000 
2.149584 76.391350 4.420700 0.000000 0.000000 0.000000 -1.522789 -60.558431 1.049555 -28.585877 7.736557 23.974370 53.298107 -6.346998 -4.395199 -30.865908 0.466533 -10.464222 -2.237471 -0.907737 1.033118 0.000000 0.000000 0.000000 -2.592558 -56.496699 1.564212 -22.907568 -2.320430 -34.658487 51.177453 -2.400730 -12.256780 -22.174265 -4.326799 26.538415 -3.505845 1.036379 0.639728 0.000000 0.000000 0.000000 0.473003 -56.331917 3.052914 9.808702 9.437849 -1.184601 1.429627 2.177977 -1.589759 1.186623 -1.174643 0.795435 0.000000 0.000000 0.000000 2.719329 2.127517 -1.480671 -8.896598 15.789970 3.229574 5.104185 26.397023 -4.770529 0.000000 0.000000 0.000000 2.210708 2.155368 -1.222635 1.154484 1.112818 2.061918 -0.765722 -0.450219 -1.274103 -17.561461 1.564108 -19.146040 172.982218 -85.723000 173.529193 0.000000 0.000000 0.000000 1.769385 1.900699 -1.537714 0.747908 8.233837 0.044824 -5.516956 -2.787144 2.477811 -59.668608 28.920339 77.360205 -178.514712 66.544566 176.473797 0.000000 0.000000 0.000000 
2.101005 76.305763 4.073368 0.000000 0.000000 0.000000 -1.626608 -62.048813 -0.166977 -28.919666 5.752118 24.492900 54.616658 -6.120098 -3.127255 -31.147053 2.131207 -10.797618 -2.157386 -0.750040 0.864274 0.000000 0.000000 0.000000 -2.802690 -57.965097 0.189116 -22.806562 -2.733727 -32.422549 50.129958 -2.608755 -12.464287 -22.968663 -3.919244 25.550196 -3.576451 1.205833 0.844013 0.000000 0.000000 0.000000 0.936622 -57.658551 2.013127 9.721173 7.417653 -1.029951 1.536713 0.924830 -1.672104 1.300447 -0.916580 0.267794 0.000000 0.000000 0.000000 2.624906 0.693335 -1.580104 -8.708525 17.140425 3.206005 5.949468 28.735241 -6.408546 0.000000 0.000000 0.000000 2.761631 0.636765 -1.379114 1.216258 1.089931 3.506991 -2.406296 2.265527 -1.539820 -26.609995 -5.862653 -15.001109 2.774532 -72.583539 3.182413 0.000000 0.000000 0.000000 2.043700 0.544682 -1.751475 0.678004 8.560286 0.844150 -6.220404 -2.871021 2.180021 -54.935266 31.967314 78.164091 -179.628224 62.298237 177.231757 0.000000 0.000000 0.000000 
1.926250 76.279877 3.830231 0.000000 0.000000 0.000000 -1.481924 -60.920226 -0.986791 -30.044721 4.175262 24.411105 55.749800 -6.215782 -1.626347 -30.341141 2.493446 -11.701965 -2.411312 -0.572389 0.793340 0.000000 0.000000 0.000000 -3.013913 -57.403239 -0.916911 -21.935098 -4.381747 -30.949257 49.225067 -3.428739 -12.600582 -23.467958 -4.184236 24.708867 -3.961234 1.302947 1.174406 0.000000 0.000000 0.000000 1.167449 -57.236828 1.149941 9.558635 5.553398 -1.107865 1.553677 -0.099856 -1.851843 1.041352 -0.401572 -0.107015 0.000000 0.000000 0.000000 2.314193 -0.491851 -1.810234 -8.517967 17.804602 3.274300 6.997608 29.505966 -7.179361 0.000000 0.000000 0.000000 3.348356 -0.694210 -1.596661 1.187323 1.338801 4.173775 -4.251820 3.638844 -2.202951 -32.260882 -12.936738 -15.634020 2.433841 -57.907491 2.472651 0.000000 0.000000 0.000000 2.362943 -0.618466 -2.040182 0.749619 9.980598 0.906321 -6.990581 -2.805977 2.480541 -46.911423 34.715181 75.742884 -179.790892 57.315246 177.142254 0.000000 0.000000 0.000000 
